<svg width="65" height="32" viewBox="0 0 65 32" fill="none" xmlns="http://www.w3.org/2000/svg">
<path d="M29.5001 20.5C28.8001 20.5 28.2084 20.2583 27.7251 19.775C27.2417 19.2917 27.0001 18.7 27.0001 18C27.0001 17.3 27.2417 16.7083 27.7251 16.225C28.2084 15.7417 28.8001 15.5 29.5001 15.5C30.2001 15.5 30.7917 15.7417 31.2751 16.225C31.7584 16.7083 32.0001 17.3 32.0001 18C32.0001 18.7 31.7584 19.2917 31.2751 19.775C30.7917 20.2583 30.2001 20.5 29.5001 20.5ZM25.5001 26C24.9501 26 24.4792 25.8042 24.0876 25.4125C23.6959 25.0208 23.5001 24.55 23.5001 24V10C23.5001 9.45 23.6959 8.97917 24.0876 8.5875C24.4792 8.19583 24.9501 8 25.5001 8H26.5001V6H28.5001V8H36.5001V6H38.5001V8H39.5001C40.0501 8 40.5209 8.19583 40.9126 8.5875C41.3042 8.97917 41.5001 9.45 41.5001 10V24C41.5001 24.55 41.3042 25.0208 40.9126 25.4125C40.5209 25.8042 40.0501 26 39.5001 26H25.5001ZM25.5001 24H39.5001V14H25.5001V24Z" fill="#94969C"/>
</svg>
