<svg width="185" height="314" viewBox="0 0 185 314" fill="none" xmlns="http://www.w3.org/2000/svg">
<path d="M182.886 32.4217C186.092 22.1854 187.027 7.4986 175.541 1.86572C162.827 -4.37406 151.04 7.52557 146.005 17.9282C136.277 38.0142 130.424 60.8155 123.761 82.0703C121.716 88.5978 119.832 95.1342 118.268 101.792C118.016 102.862 117.612 107.384 116.775 108.351C114.77 110.671 103.909 112.909 102.839 111.709C99.9126 108.409 99.589 91.1826 98.8922 87.1187C95.2149 65.5806 94.527 41.8354 88.0535 21.0301C84.4795 9.54856 74.1039 3.07946 62.0425 6.4511C46.1913 10.8792 47.6343 32.2689 49.2122 45.1485C52.2647 70.0717 57.9426 96.1637 65.068 120.547C55.7847 110.873 38.0678 110.684 26.9459 119.451C20.859 124.247 17.402 130.06 15.7881 136.435C10.1507 142.575 4.85949 148.923 2.03181 157.042C-2.63903 170.457 1.52375 184.136 6.65313 196.755C9.07172 202.707 11.6746 209.325 15.8914 214.4C19.5148 229.289 26.6852 243.958 37.389 255.071C39.2412 264.557 40.2842 273.872 39.6233 283.654C38.949 293.652 35.6897 302.899 34.4849 312.722C34.2826 314.376 36.6293 314.673 37.389 313.508C47.4095 298.188 46.1194 275.211 39.974 257.584C46.4296 263.626 54.0134 268.436 62.7707 271.327C63.0719 271.426 63.1933 271.017 62.9685 270.85C43.9525 256.753 27.4988 240.497 19.5732 218.055C20.6611 218.914 21.8165 219.701 23.1022 220.343C31.6077 224.619 41.1607 222.11 48.7402 217.214C58.3246 223.054 69.7477 225.383 79.7053 219.876C84.7448 217.089 86.1833 213.42 85.5539 209.473C87.7073 212.863 89.6134 216.41 91.1419 220.199C91.2543 220.474 91.6814 220.375 91.596 220.074C87.2399 204.353 78.6983 192.026 67.6708 180.243C61.5209 173.671 53.3931 167.166 48.5964 159.483C40.0594 151.157 42.8061 141.254 56.8456 129.777C62.5909 130.496 67.5765 132.663 71.8112 136.277C77.1519 139.703 81.9037 144.203 86.8083 148.208C101.248 160.013 115.656 171.603 130.81 182.451C143.447 191.496 153.684 201.058 149.642 218.577C149.008 221.319 148.051 223.953 146.922 226.525C143.438 232.49 139.136 237.997 134.874 243.805C124.292 255.202 112.365 265.294 98.6809 272.775C98.4292 272.909 98.5236 273.39 98.8383 273.345C108.76 272.024 116.807 267.753 123.667 261.895C116.937 276.326 114.55 293.827 119.927 308.842C120.803 311.288 124.75 310.721 124.53 307.983C123.038 289.556 122.988 273.022 133.323 256.658C141.402 243.873 154.245 234.522 158.943 219.701C160.926 213.443 161.618 207.032 161.551 200.536C161.789 196.405 161.708 192.161 161.393 187.791C161.227 185.521 161.065 183.255 160.894 180.994C160.899 180.882 160.944 180.792 160.935 180.67C158.714 154.713 156.898 130.649 161.303 104.719C165.588 79.4943 175.307 56.6391 182.886 32.4217ZM39.9379 216.297C34.0353 217.179 19.0113 210.786 15.2396 206.084C9.13468 198.473 4.63911 185.669 3.27697 176.31C1.06967 161.173 7.44433 151.198 14.9833 140.782C12.6726 159.213 23.3854 181.201 30.1557 196.773C32.9789 203.269 38.414 209.815 45.0808 214.755C43.3725 215.434 41.6552 216.041 39.9379 216.297ZM38.6837 148.001C39.839 159.811 49.4549 169.229 57.2052 177.33C60.0329 180.288 62.955 183.215 65.8635 186.168C65.8815 186.195 65.8681 186.227 65.8951 186.254C68.6419 189.432 71.438 192.543 73.9825 195.892C78.5859 201.943 82.1599 212.553 72.3912 214.805C67.073 216.032 54.9171 210.669 50.3991 208.304C43.1433 204.506 39.4615 198.531 36.0943 191.149C29.45 176.579 15.9229 155.203 19.4204 139.033C24.4419 115.773 54.0854 108.72 67.0549 127.156C67.2347 127.749 67.4055 128.356 67.5898 128.945C67.7247 129.377 68.1608 129.565 68.5609 129.538C68.8936 130.132 69.2038 130.748 69.5051 131.382C55.5779 124.616 36.7326 128.068 38.6837 148.001ZM150.797 149.031C149.952 149.678 149.426 150.816 149.984 152.043C150.334 152.816 150.591 153.612 150.892 154.394C151.197 162.738 152.236 171.054 154.129 179.295C154.039 181.965 153.89 184.627 153.715 187.27L153.531 187.387C153.571 187.773 153.594 188.16 153.63 188.542C153.598 188.969 153.576 189.401 153.544 189.828C153.364 192.444 153.189 195.11 152.996 197.798C151.764 195.551 150.222 193.357 148.266 191.248C138.844 181.12 126.014 174.359 115.184 165.907C101.41 155.154 87.9276 143.65 73.569 133.701C72.6654 133.076 71.7258 132.505 70.7547 131.979C70.7592 131.935 70.7863 131.898 70.7818 131.854C70.4086 129.804 69.7567 127.974 68.9655 126.266C65.7062 101.491 58.7022 77.3814 54.3191 52.8089C53.0738 45.8184 51.986 38.621 52.2512 31.4821C51.3566 22.3562 54.944 15.1815 63.0179 9.96665C76.2437 8.70341 83.7513 13.3248 85.536 23.8398C88.4536 35.1685 89.1189 48.0392 90.998 59.5747C93.8437 77.0578 93.5155 97.4314 98.7483 114.379C101.297 122.633 108.553 126.63 116.168 120.826C122.138 116.277 123.752 107.465 125.632 100.785C129.062 88.5842 131.826 76.2126 135.4 64.0477C138.965 51.9278 142.611 39.7135 147.084 27.8903C148.406 23.9207 150.011 20.068 151.903 16.3322C157.734 3.35817 167.804 4.56747 182.118 19.9556C182.886 25.4626 179.232 33.3343 177.294 38.5806C164.581 73.0612 150.761 111.233 150.797 149.031Z" fill="#690FFF"/>
<path d="M63.6658 21.102C63.7782 20.6209 63.1085 20.4545 62.9376 20.8996C57.7183 34.4671 58.2037 49.7609 63.2117 63.3014C63.441 63.9172 64.4031 63.679 64.2143 63.0271C60.074 48.7404 60.2987 35.4921 63.6658 21.102Z" fill="#690FFF"/>
<path d="M161.919 17.2133C151.804 27.027 153.8 43.121 148.824 55.4791C148.536 56.1939 149.754 56.7109 150.074 56.0051C155.769 43.4806 154.106 29.0365 162.139 17.3841C162.234 17.2493 162.032 17.1054 161.919 17.2133Z" fill="#690FFF"/>
<path d="M168.092 35.3931C165.642 42.6534 163.205 49.9093 160.917 57.2235C160.728 57.8349 161.681 58.0955 161.875 57.4887C164.163 50.1834 166.289 42.8378 168.411 35.4831C168.47 35.2764 168.16 35.1953 168.092 35.3931Z" fill="#690FFF"/>
<path d="M143.092 127.502C143.133 127.178 142.652 127.03 142.589 127.362C139.883 142.539 139.276 157.99 142.247 173.185C142.409 174.008 143.843 173.833 143.731 172.983C141.744 157.667 141.024 142.867 143.092 127.502Z" fill="#690FFF"/>
<path d="M50.5838 138.992C44.2721 148.509 57.9475 157.393 61.1977 164.725C61.5933 165.619 62.8476 165.408 63.2972 164.725C67.1363 158.899 71.5554 153.783 76.2352 148.644C76.451 148.406 76.532 148.15 76.532 147.903C76.7568 148.015 76.9725 148.145 77.2018 148.253C77.3186 148.307 77.4401 148.168 77.3457 148.069C72.5534 143.074 56.8461 129.552 50.5838 138.992ZM74.6618 147.075C69.91 151.355 65.8911 156.467 62.3441 161.798C58.7027 156.008 51.5594 151.737 51.3211 144.526C51.2087 141.141 53.3845 138.534 56.8191 137.855C59.876 137.253 63.6838 140.157 66.1608 141.676C69.0469 143.443 71.8387 145.358 74.7922 146.999C74.7518 147.026 74.7067 147.039 74.6618 147.075Z" fill="#690FFF"/>
<path d="M128.967 240.227C135.886 233.452 142.818 223.719 142.624 213.578C142.44 203.813 134.865 197.816 127.861 192.201C127.515 191.923 127.016 192.386 127.358 192.7C133.588 198.432 139.77 204.789 139.612 213.735C139.442 223.225 133.584 231.883 127.928 239.188C127.376 239.912 128.275 240.906 128.967 240.227Z" fill="#690FFF"/>
<path d="M34.6562 163.763C37.5513 179.542 46.0613 196 60.5953 203.957C61.2921 204.339 62.0384 203.422 61.454 202.847C49.6802 191.203 39.8711 179.915 35.1103 163.637C35.0249 163.34 34.6023 163.466 34.6562 163.763Z" fill="#690FFF"/>
<path d="M31.0907 131.494C28.9688 135.131 27.6785 139.397 28.2764 143.623C28.3664 144.266 29.3869 144.095 29.3869 143.47C29.3869 139.316 29.7735 135.594 31.6571 131.827C31.8504 131.449 31.3065 131.121 31.0907 131.494Z" fill="#690FFF"/>
<path d="M65.4406 260.38C53.9951 253.583 44.2218 245.496 38.0855 233.43C37.9911 233.241 37.6629 233.376 37.7393 233.574C42.572 246.143 51.7654 257.476 64.6405 262.278C65.7689 262.7 66.4297 260.965 65.4406 260.38Z" fill="#690FFF"/>
<path d="M105.559 251.21C100.964 253.12 96.0912 255.13 92.4453 258.596C91.789 259.221 92.6387 260.331 93.4164 259.854C97.6467 257.274 101.364 254.064 105.793 251.767C106.094 251.614 105.882 251.07 105.559 251.21Z" fill="#690FFF"/>
<path d="M106.035 281.096C105.887 291.193 106.57 302.09 110.009 311.679C110.459 312.924 112.172 312.421 111.97 311.139C110.369 301.087 107.852 291.229 106.557 281.096C106.516 280.772 106.044 280.75 106.035 281.096Z" fill="#690FFF"/>
<path d="M54.9622 281.865C55.3039 286.634 55.8928 291.386 55.7759 296.178C55.6545 300.988 54.5262 305.691 54.4228 310.478C54.4048 311.18 55.5286 311.571 55.8298 310.861C59.4667 302.31 58.6485 290.415 55.614 281.775C55.4971 281.446 54.9353 281.469 54.9622 281.865Z" fill="#690FFF"/>
<path d="M79.0084 45.2967C81.2382 66.0525 84.4166 86.8848 90.0989 107.007C90.2832 107.654 91.2407 107.38 91.1014 106.728C86.7002 86.2779 82.2722 65.9896 79.3816 45.2428C79.3546 45.036 78.9859 45.0854 79.0084 45.2967Z" fill="#690FFF"/>
<path d="M117.405 130.154C111.17 134.429 103.109 134.731 97.1572 129.709C96.9235 129.511 96.6357 129.804 96.8245 130.042C101.891 136.511 112.541 137.473 118.093 131.044C118.484 130.59 117.971 129.768 117.405 130.154Z" fill="#690FFF"/>
</svg>
