<svg width="63" height="36" viewBox="0 0 63 36" fill="none" xmlns="http://www.w3.org/2000/svg">
<path d="M36.5441 16.8161C36.6569 16.823 36.7706 16.8299 36.8834 16.8368C36.7138 16.9866 36.5209 16.9151 36.3332 16.8945C36.4029 16.8686 36.4735 16.8419 36.5433 16.8161H36.5441Z" fill="#690FFF"/>
<path d="M28.4153 6.22158C28.436 6.1088 28.4506 6.06144 28.4524 6.01409C28.4707 5.30698 28.8432 4.95314 29.5699 4.95256C30.2173 4.95256 30.8647 4.95945 31.5121 4.94309C31.7661 4.93706 31.8401 5.02488 31.8393 5.27283C31.8307 8.94729 31.8892 12.6226 31.8074 16.2945C31.7497 18.8601 29.742 21.1949 27.1765 21.8208C24.7202 22.42 22.357 22.1359 20.1306 20.8738C19.7406 20.6534 19.6614 20.427 19.8379 20.0335C20.0961 19.4602 20.3217 18.873 20.5619 18.2919C20.6618 18.0491 20.7711 17.938 21.0638 18.1085C22.0522 18.6853 23.1232 19.0693 24.2605 19.1933C25.2807 19.3052 26.2845 19.1786 27.1833 18.6225C28.0951 18.0586 28.3456 17.1374 28.4575 16.1576C28.4894 15.8821 28.4627 15.5989 28.4627 15.3079C28.1829 15.5705 27.9315 15.8417 27.6448 16.0689C26.1433 17.2587 24.4792 17.2415 22.7848 16.6234C20.1538 15.6652 18.7583 13.4 18.8891 10.4074C19.0062 7.73424 20.7238 5.4674 23.242 4.82428C25.1679 4.33183 26.9492 4.62971 28.4171 6.22072L28.4153 6.22158ZM28.5712 10.887C28.5763 9.01445 27.2806 7.64728 25.4847 7.6292C23.7224 7.61112 22.3277 8.98517 22.3001 10.7664C22.2726 12.5822 23.6819 14.0604 25.446 14.0647C27.2135 14.0698 28.566 12.6941 28.5712 10.887Z" fill="#690FFF"/>
<path d="M41.0616 4.74667C43.0642 4.76561 44.9548 6.47801 45.2682 8.52359C45.4257 9.5524 45.3646 10.5838 45.3749 11.6135C45.3904 13.2062 45.3689 14.7989 45.3887 16.3917C45.3939 16.7997 45.2845 16.9504 44.8558 16.9315C44.105 16.8979 43.35 16.9031 42.5984 16.934C42.1791 16.9513 42.0483 16.7963 42.0474 16.3934C42.044 14.4511 42.0112 12.508 42.0087 10.5657C42.0078 9.83135 41.8761 9.14604 41.468 8.52617C41.4826 8.50551 41.4973 8.48484 41.5119 8.46504C41.4895 8.47882 41.4663 8.49259 41.4439 8.50551C41.4241 8.49776 41.4129 8.48312 41.4095 8.4616C41.4465 8.37723 41.4112 8.35312 41.3311 8.3669L41.3587 8.3514L41.3285 8.36087C41.3216 8.08623 41.1055 7.9855 40.9118 7.87616C39.8632 7.28729 38.8413 7.4302 37.8615 8.0363C37.568 8.21796 37.3045 8.46849 37.2916 8.86538C37.2968 8.89379 37.2916 8.91962 37.2761 8.94372C36.8456 9.24763 36.8758 9.72889 36.8715 10.1559C36.8491 12.1671 36.8577 14.1791 36.8663 16.1911C36.8672 16.4709 36.8465 16.7068 36.5443 16.8144C36.4746 16.8402 36.404 16.8669 36.3343 16.8927C35.9847 16.8919 35.6352 16.8901 35.2856 16.8893C35.1978 16.6189 34.9688 16.724 34.7966 16.7205C33.8143 16.7016 33.8143 16.7068 33.8143 15.7098V6.90245C33.8143 4.96277 33.8272 3.02308 33.804 1.0834C33.7988 0.637436 33.9417 0.510019 34.3705 0.532403C34.9981 0.565118 35.6291 0.561675 36.2568 0.532403C36.6476 0.514323 36.769 0.640019 36.7639 1.03433C36.7441 2.65891 36.7535 4.28435 36.7596 5.90979C36.7596 6.07251 36.6735 6.28516 36.8715 6.38503C37.0893 6.49523 37.2391 6.32734 37.3588 6.18099C37.9149 5.49913 38.651 5.13581 39.4913 4.95416C39.611 4.92833 39.679 4.87667 39.6971 4.75786C39.7677 4.75442 39.8383 4.75011 39.908 4.74667C40.2928 4.90853 40.6768 4.91111 41.0608 4.74495L41.0616 4.74667Z" fill="#690FFF"/>
<path d="M50.1149 1.71174C50.4997 1.71174 50.888 1.7436 51.2686 1.70399C51.7317 1.65664 51.8282 1.85896 51.8127 2.27393C51.7851 3.02467 51.8239 3.77798 51.7972 4.52872C51.7851 4.8817 51.9005 4.97382 52.2405 4.96263C53.0094 4.93852 53.7799 4.96521 54.5487 4.94971C54.8836 4.94283 55.0257 5.05733 55.0162 5.40343C54.999 6.0672 55.0016 6.73271 55.0102 7.39649C55.0145 7.75291 54.8561 7.90444 54.5048 7.90186C53.7351 7.89755 52.9655 7.91649 52.1966 7.90358C51.9039 7.89841 51.798 7.98795 51.8006 8.28928C51.8127 9.68829 51.7825 11.0882 51.8118 12.4863C51.8359 13.6124 52.3611 14.0894 53.488 14.098C53.8729 14.1006 54.2577 14.1118 54.6425 14.0963C54.9163 14.0851 55.0171 14.1936 55.0136 14.4622C55.0041 15.1268 55.0067 15.7915 55.011 16.4561C55.0128 16.6696 54.9456 16.816 54.7424 16.9167C53.3503 17.6046 50.548 17.1836 49.4244 16.1272C48.6806 15.4273 48.4378 14.5242 48.4171 13.5634C48.3801 11.8501 48.3836 10.136 48.4042 8.42272C48.4094 7.99484 48.2742 7.89841 47.8704 7.90358C46.474 7.9208 46.474 7.90616 46.4723 6.5037C46.4723 6.15416 46.4878 5.8029 46.4671 5.45508C46.4439 5.06077 46.6135 4.92389 46.9957 4.95144C47.3436 4.9764 47.6957 4.9411 48.0444 4.96177C48.325 4.97812 48.4025 4.86965 48.3982 4.59931C48.3836 3.77798 48.4034 2.95493 48.387 2.1336C48.381 1.82022 48.474 1.68936 48.8028 1.70658C49.2393 1.72896 49.6767 1.71174 50.114 1.7126L50.1149 1.71174Z" fill="#690FFF"/>
<path d="M7.94129 6.7362C8.69719 5.56361 9.65454 4.97646 10.8693 4.79049C11.3928 4.71043 11.9154 4.75347 12.4379 4.74659C12.6687 4.744 12.7289 4.88606 12.7281 5.0901C12.7246 5.92951 12.7186 6.76892 12.7332 7.60747C12.7384 7.91052 12.5817 7.95701 12.3389 7.93979C11.7449 7.8976 11.1551 7.90535 10.5637 8.00436C9.0295 8.26178 8.01102 9.41112 7.99725 10.9754C7.98089 12.7937 7.97917 14.6129 8.00499 16.4303C8.01188 16.9047 7.85089 17.0355 7.40062 17.0175C6.64989 16.9873 5.89657 16.9959 5.14497 17.0149C4.75841 17.0244 4.62239 16.8763 4.62325 16.4914C4.63186 12.7843 4.63186 9.07794 4.62153 5.37076C4.62066 5.04275 4.73345 4.94805 5.04769 4.95493C5.86902 4.97129 6.69121 4.97043 7.5134 4.95493C7.83797 4.94891 7.95162 5.0858 7.94387 5.39143C7.9344 5.78401 7.94129 6.17746 7.94129 6.73534V6.7362Z" fill="#690FFF"/>
<path d="M14.2476 10.8867C14.2476 9.08645 14.2588 7.28624 14.239 5.48603C14.2347 5.08225 14.3329 4.92986 14.7625 4.94794C15.5649 4.98152 16.3707 4.97205 17.1739 4.94967C17.5226 4.94019 17.6612 5.0151 17.6595 5.4051C17.6449 9.11056 17.6466 12.816 17.6569 16.5215C17.6578 16.8693 17.5476 16.9743 17.2049 16.9657C16.3836 16.9451 15.5614 16.9433 14.741 16.97C14.3355 16.9829 14.2399 16.8194 14.2425 16.4457C14.2562 14.593 14.2485 12.7403 14.2485 10.8875H14.2468L14.2476 10.8867Z" fill="#690FFF"/>
<path d="M17.9577 2.2078C17.9474 3.28655 16.9694 4.23358 15.8906 4.20861C14.7938 4.18278 13.8717 3.22973 13.8872 2.13807C13.9027 1.06104 14.8627 0.138117 15.9664 0.138978C17.052 0.139839 17.968 1.09203 17.9577 2.2078Z" fill="#690FFF"/>
<path d="M39.6979 4.75941C39.6807 4.87822 39.6127 4.92988 39.4922 4.95571C38.6519 5.13736 37.9158 5.50154 37.3596 6.18254C37.24 6.32889 37.0902 6.49678 36.8724 6.38658C36.6743 6.28671 36.7613 6.07406 36.7604 5.91134C36.7544 4.2859 36.7449 2.66132 36.7647 1.03588C36.7699 0.641568 36.6477 0.51587 36.2576 0.53395C35.63 0.562361 34.9981 0.565804 34.3713 0.53395C33.9426 0.511566 33.7997 0.638983 33.8048 1.08495C33.8281 3.02463 33.8152 4.96432 33.8152 6.904V15.7113C33.8152 16.7083 33.8152 16.704 34.7975 16.7221C34.9697 16.7255 35.1987 16.6205 35.2865 16.8908C34.9025 16.9012 34.516 16.8908 34.1346 16.9287C33.717 16.97 33.6378 16.772 33.6378 16.4078C33.6387 14.1694 33.6197 11.931 33.6146 9.69256C33.6086 6.77227 33.6189 3.85199 33.5974 0.931701C33.5939 0.509843 33.7144 0.401367 34.1208 0.416864C34.819 0.442692 35.519 0.40395 36.2189 0.400506C36.9533 0.396201 36.9576 0.40395 36.9584 1.11594C36.9584 2.8292 36.9584 4.54246 36.9584 6.34267C37.7066 5.46279 38.5606 4.85239 39.6971 4.76027L39.6979 4.75941Z" fill="#690FFF"/>
<path d="M36.5447 16.8161C36.846 16.7076 36.8675 16.4717 36.8667 16.1919C36.8581 14.1799 36.8495 12.1679 36.8718 10.1568C36.877 9.72974 36.846 9.24847 37.2765 8.94456C37.0578 9.56788 36.9941 10.2067 37.0036 10.8688C37.0285 12.6449 37.0191 14.4218 37.0147 16.1988C37.0147 16.4149 37.0853 16.6559 36.8839 16.8359C36.7711 16.829 36.6575 16.8221 36.5447 16.8152V16.8161Z" fill="#690FFF"/>
<path d="M37.2926 8.86619C37.3064 8.4693 37.569 8.21877 37.8625 8.03711C38.8423 7.43102 39.8642 7.2881 40.9128 7.87698C41.1065 7.98546 41.3218 8.08705 41.3295 8.36169C39.9787 7.32857 38.6727 7.49128 37.2926 8.86619Z" fill="#690FFF"/>
<path d="M41.0615 4.74647C40.6775 4.91352 40.2935 4.91007 39.9086 4.7482C40.2926 4.65606 40.6766 4.59579 41.0615 4.74647Z" fill="#690FFF"/>
<path d="M41.3318 8.36768C41.4119 8.35391 41.4472 8.37801 41.4101 8.4624C41.3834 8.4314 41.3576 8.39954 41.3318 8.36768Z" fill="#690FFF"/>
<path d="M41.443 8.50638C41.4654 8.4926 41.4886 8.47883 41.511 8.46591C41.4964 8.48658 41.4817 8.50724 41.4671 8.52705L41.443 8.50638Z" fill="#690FFF"/>
<path d="M52.2859 35.4081C52.0724 35.6345 51.7977 35.5062 51.555 35.5165C50.9618 35.5415 50.366 35.5346 49.772 35.532C49.1202 35.5286 49.0574 35.4623 49.0522 34.8063C49.0514 34.6694 49.0522 34.5316 49.0522 34.4137C48.9188 34.3353 48.8602 34.4059 48.7991 34.4679C46.5133 36.7787 42.5548 36.046 40.7778 33.5106C38.8726 30.7917 39.1963 25.949 42.696 24.0902C44.5013 23.1311 46.3919 22.9977 48.2051 24.1755C48.4909 24.3606 48.7208 24.6318 49.0488 24.9288C49.0488 24.5259 49.0488 24.1875 49.0488 23.8483C49.0488 22.5371 49.0453 21.2259 49.0522 19.9147C49.0522 19.7503 48.9782 19.5626 49.1375 19.4214C49.9485 19.4309 50.7612 19.473 51.5696 19.4377C52.0784 19.4154 52.2084 19.5763 52.2067 20.0783C52.1878 24.9873 52.1946 29.8964 52.1989 34.8054C52.1989 35.0069 52.1258 35.2273 52.285 35.4089L52.2859 35.4081ZM42.943 29.6605C42.9112 31.4986 44.0881 32.8287 45.7109 32.9131C47.8331 33.0233 49.1013 31.4435 49.1435 29.7018C49.19 27.8293 47.8857 26.4432 46.0915 26.4165C44.2637 26.3898 42.9766 27.7165 42.943 29.6605Z" fill="#690FFF"/>
<path d="M22.2546 34.2163C21.249 35.2761 20.1522 35.7746 18.8548 35.84C16.0507 35.983 13.6048 34.1629 13.0435 31.4148C12.6165 29.3245 12.8127 27.3159 14.1756 25.5502C15.5144 23.8145 17.863 23.0018 19.9817 23.5442C20.8332 23.762 21.5211 24.2398 22.1065 24.8967C22.2477 24.7323 22.1883 24.5713 22.1909 24.4258C22.2021 23.6931 22.1986 23.6931 22.9545 23.6897C23.602 23.6862 24.2494 23.6923 24.8968 23.6742C25.2618 23.6639 25.4306 23.7655 25.4289 24.1761C25.4159 27.78 25.4159 31.3839 25.4289 34.9877C25.4306 35.407 25.2946 35.5404 24.8813 35.5232C24.2003 35.4939 23.515 35.4871 22.8349 35.5258C22.3769 35.5525 22.1797 35.4225 22.2494 34.9481C22.2761 34.7656 22.2537 34.5753 22.2537 34.2163H22.2546ZM16.1446 29.7007C16.1334 31.2814 17.1742 33.0351 19.2741 32.918C21.0355 32.8199 22.3863 31.42 22.3631 29.5552C22.3398 27.7214 21.0011 26.3922 19.2103 26.4257C17.4162 26.4585 16.123 27.8411 16.1446 29.7016V29.7007Z" fill="#690FFF"/>
<path d="M3.62505 25.0517C3.76366 25.0586 3.79982 24.9389 3.86266 24.8675C5.18161 23.3703 6.85527 23.1396 8.64171 23.6751C10.404 24.2037 11.4079 25.4615 11.6731 27.3065C11.8332 28.4231 11.7359 29.5398 11.754 30.6564C11.7772 32.1252 11.7488 33.5948 11.7678 35.0644C11.7729 35.4389 11.6498 35.5456 11.2874 35.5344C10.5185 35.5121 9.74715 35.5069 8.97919 35.5422C8.56422 35.5611 8.48846 35.4036 8.49104 35.0291C8.5074 33.0705 8.49363 31.111 8.50224 29.1523C8.50396 28.7804 8.44197 28.4206 8.34382 28.071C8.0115 26.8821 7.05414 26.3147 5.70076 26.4783C4.53936 26.6186 3.70339 27.4658 3.67929 28.647C3.63796 30.6573 3.65518 32.6693 3.64743 34.6813C3.64399 35.5172 3.64485 35.5146 2.82007 35.5155C2.13822 35.5164 1.45463 35.5069 0.773635 35.537C0.406878 35.5525 0.296679 35.4346 0.299262 35.0652C0.315619 33.036 0.30701 31.0077 0.30701 28.9784C0.30701 25.935 0.315619 22.8916 0.296679 19.8482C0.294096 19.4376 0.394825 19.311 0.811517 19.33C1.57947 19.3644 2.35173 19.3678 3.11968 19.3282C3.53637 19.3067 3.61902 19.4677 3.61386 19.8302C3.59319 21.4565 3.58803 23.0836 3.58372 24.7099C3.58372 24.8227 3.53121 24.9501 3.62505 25.0517Z" fill="#690FFF"/>
<path d="M30.24 25.093C30.3975 25.1024 30.444 24.9673 30.5172 24.8846C31.8826 23.3461 33.6028 23.1163 35.4409 23.6922C37.3203 24.2811 38.2957 25.6741 38.449 27.625C38.6444 30.1217 38.4894 32.6244 38.5445 35.1237C38.5523 35.462 38.4008 35.5378 38.102 35.5344C37.297 35.524 36.4921 35.5163 35.688 35.5413C35.2876 35.5533 35.1766 35.3932 35.1791 35.0169C35.1903 32.9877 35.1912 30.9585 35.1809 28.9293C35.1723 27.1351 33.9144 26.139 32.1461 26.5083C31.1043 26.7253 30.3777 27.5802 30.3596 28.7313C30.3269 30.7424 30.345 32.7544 30.3407 34.7664C30.339 35.518 30.3381 35.5154 29.5865 35.518C28.8694 35.5197 28.1513 35.5171 27.435 35.5387C27.1131 35.5481 27.0054 35.4233 27.0054 35.1108C27.0089 31.4544 27.0072 27.7989 26.9968 24.1425C26.996 23.8257 27.1088 23.6957 27.4195 23.6974C28.2064 23.7008 28.9942 23.6982 29.7811 23.6888C30.1186 23.6845 30.2563 23.8394 30.2434 24.1683C30.2322 24.4748 30.2408 24.7822 30.2408 25.0938L30.24 25.093Z" fill="#690FFF"/>
<path d="M58.2851 23.3945C59.6764 23.4091 60.917 23.7475 62.0551 24.4672C62.3436 24.6497 62.4477 24.8021 62.2695 25.1318C61.9794 25.6682 61.709 26.2175 61.4749 26.7797C61.3182 27.1576 61.1408 27.1361 60.8438 26.9501C60.0121 26.4284 59.1116 26.1271 58.1164 26.1667C58.0294 26.1701 57.9382 26.1564 57.8546 26.1762C57.4138 26.2846 56.9085 26.3526 56.8534 26.9286C56.8009 27.4856 57.2072 27.7405 57.6661 27.8756C58.3178 28.0668 58.9902 28.189 59.6394 28.3888C61.0909 28.8347 62.2798 29.5751 62.6225 31.2074C62.9772 32.894 62.1421 34.5978 60.5614 35.315C59.01 36.0192 57.4035 35.9228 55.7901 35.5664C54.9602 35.383 54.2241 35.0016 53.5397 34.5048C53.265 34.3051 53.2082 34.1088 53.3907 33.8032C53.7394 33.2195 54.0597 32.6185 54.3808 32.0193C54.4961 31.8032 54.5633 31.7671 54.7837 31.9487C55.8573 32.8303 57.1039 33.2065 58.4892 33.0989C59.0884 33.0524 59.4525 32.7761 59.4964 32.3568C59.555 31.8058 59.2278 31.4984 58.7629 31.3461C58.1181 31.1334 57.45 30.9914 56.8026 30.783C55.8883 30.4886 54.9645 30.1872 54.3438 29.3805C52.9249 27.5373 53.7144 24.8047 55.9391 23.8516C56.2258 23.7285 56.528 23.6381 56.8284 23.5538C57.3209 23.416 57.8323 23.4315 58.2825 23.3945H58.2851Z" fill="#690FFF"/>
<path d="M52.2868 35.408C52.1275 35.2264 52.2007 35.006 52.2007 34.8045C52.1964 29.8955 52.1895 24.9864 52.2085 20.0774C52.2102 19.5755 52.0802 19.4145 51.5714 19.4369C50.7621 19.4722 49.9502 19.43 49.1392 19.4205C50.1224 19.2457 51.1142 19.3809 52.1008 19.3482C52.4142 19.3378 52.3143 19.6151 52.3152 19.7821C52.323 21.2155 52.3204 22.649 52.3204 24.0825C52.3204 27.6312 52.3212 31.18 52.3195 34.7296C52.3195 34.956 52.298 35.1816 52.2868 35.408Z" fill="#690FFF"/>
</svg>
