<svg width="15" height="14" viewBox="0 0 15 14" fill="none" xmlns="http://www.w3.org/2000/svg">
<path d="M7.21015 0.892052C7.30139 0.611272 7.69861 0.611273 7.78985 0.892054L9.22769 5.31728C9.26849 5.44285 9.3855 5.52786 9.51753 5.52786H14.1705C14.4657 5.52786 14.5885 5.90565 14.3496 6.07918L10.5853 8.81412C10.4785 8.89173 10.4338 9.02929 10.4746 9.15486L11.9124 13.5801C12.0037 13.8609 11.6823 14.0943 11.4435 13.9208L7.67913 11.1859C7.57232 11.1083 7.42768 11.1083 7.32087 11.1859L3.55654 13.9208C3.3177 14.0943 2.99633 13.8609 3.08756 13.5801L4.52541 9.15486C4.56621 9.02929 4.52151 8.89173 4.4147 8.81412L0.650373 6.07918C0.411527 5.90565 0.534278 5.52786 0.829508 5.52786H5.48247C5.6145 5.52786 5.73151 5.44285 5.77231 5.31728L7.21015 0.892052Z" fill="#690FFF"/>
</svg>
