<svg width="24" height="25" viewBox="0 0 24 25" fill="none" xmlns="http://www.w3.org/2000/svg">
<path d="M4.5 22.7025V17.7025M20.5 7.70251V2.70251M18 5.20251H23M2 20.2025H7M13 3.70251L11.2658 8.21138C10.9838 8.94461 10.8428 9.31122 10.6235 9.6196C10.4292 9.89291 10.1904 10.1317 9.91709 10.326C9.60871 10.5453 9.24209 10.6863 8.50886 10.9683L4 12.7025L8.50886 14.4367C9.24209 14.7187 9.60871 14.8597 9.91709 15.079C10.1904 15.2733 10.4292 15.5121 10.6235 15.7854C10.8428 16.0938 10.9838 16.4604 11.2658 17.1937L13 21.7025L14.7342 17.1937C15.0162 16.4604 15.1572 16.0938 15.3765 15.7854C15.5708 15.5121 15.8096 15.2733 16.0829 15.079C16.3913 14.8597 16.7579 14.7187 17.4911 14.4367L22 12.7025L17.4911 10.9683C16.7579 10.6863 16.3913 10.5453 16.0829 10.326C15.8096 10.1317 15.5708 9.89291 15.3765 9.6196C15.1572 9.31122 15.0162 8.94461 14.7342 8.21138L13 3.70251Z" stroke="#690FFF" stroke-width="2" stroke-linecap="round" stroke-linejoin="round"/>
</svg>
