<svg width="65" height="32" viewBox="0 0 65 32" fill="none" xmlns="http://www.w3.org/2000/svg">
<path d="M36.8334 12V8.5006C36.8334 7.66887 36.8334 7.253 36.6582 6.99742C36.5051 6.77413 36.268 6.62245 36.0011 6.57703C35.6957 6.52505 35.3181 6.69932 34.5629 7.04787L25.6924 11.1419C25.0189 11.4528 24.6821 11.6082 24.4355 11.8493C24.2174 12.0624 24.051 12.3225 23.9489 12.6098C23.8334 12.9347 23.8334 13.3056 23.8334 14.0474V18.9999M37.3334 18.4999H37.3434M23.8334 15.2L23.8334 21.7999C23.8334 22.9201 23.8334 23.4801 24.0514 23.9079C24.2431 24.2843 24.5491 24.5902 24.9254 24.782C25.3532 24.9999 25.9133 24.9999 27.0334 24.9999H38.6334C39.7535 24.9999 40.3135 25 40.7414 24.782C41.1177 24.5902 41.4236 24.2843 41.6154 23.9079C41.8334 23.4801 41.8334 22.9201 41.8334 21.7999V15.2C41.8334 14.0798 41.8334 13.5198 41.6154 13.092C41.4236 12.7156 41.1177 12.4097 40.7414 12.2179C40.3135 12 39.7535 12 38.6334 12L27.0334 11.9999C25.9133 11.9999 25.3532 12 24.9254 12.2179C24.5491 12.4097 24.2431 12.7156 24.0514 13.092C23.8334 13.5198 23.8334 14.0798 23.8334 15.2ZM37.8334 18.4999C37.8334 18.7761 37.6095 18.9999 37.3334 18.9999C37.0572 18.9999 36.8334 18.7761 36.8334 18.4999C36.8334 18.2238 37.0572 17.9999 37.3334 17.9999C37.6095 17.9999 37.8334 18.2238 37.8334 18.4999Z" stroke="#94969C" stroke-width="2" stroke-linecap="round" stroke-linejoin="round"/>
</svg>
